HIERARCHY
ROOT root
{
	OFFSET	0	13.1	24.9
	CHANNELS 6  Xposition Yposition Zposition Xrotation Yrotation Zrotation
	JOINT spine_1
	{
		OFFSET	0	9.99999	0
		CHANNELS 3  Xrotation Yrotation Zrotation
		JOINT spine_2
		{
			OFFSET	0	112	-10
			CHANNELS 3  Xrotation Yrotation Zrotation
			JOINT spine_3
			{
				OFFSET	0	206.5	19.3
				CHANNELS 3  Xrotation Yrotation Zrotation
				JOINT spine_4
				{
					OFFSET	0	110.4	14.6
					CHANNELS 3  Xrotation Yrotation Zrotation
					JOINT neck_1
					{
						OFFSET	0	71.8	-50.3
						CHANNELS 3  Xrotation Yrotation Zrotation
						JOINT neck_2
						{
							OFFSET	0	86.2	-25.8
							CHANNELS 3  Xrotation Yrotation Zrotation
							JOINT head_ee
							{
								OFFSET	0	179.8	-8.7
								CHANNELS 3  Xrotation Yrotation Zrotation
								End Site
								{
									OFFSET	1	0	0
								}
							}
						}
					}
					JOINT left_clavicle
					{
						OFFSET	-43.2	22.4	-70.8
						CHANNELS 3  Xrotation Yrotation Zrotation
						JOINT left_shoulder
						{
							OFFSET	-93.9	-5.79999	48.7
							CHANNELS 3  Xrotation Yrotation Zrotation
							JOINT left_elbow
							{
								OFFSET	-291.4	-30.8	15.2
								CHANNELS 3  Xrotation Yrotation Zrotation
								JOINT left_lowarm_twist
								{
									OFFSET	-110.7	-3.89999	13.6
									CHANNELS 3  Xrotation Yrotation Zrotation
									JOINT left_hand
									{
										OFFSET	-110.7	-3.89999	13.6
										CHANNELS 3  Xrotation Yrotation Zrotation
										JOINT left_ee
										{
											OFFSET	-80.8	-5.10001	12.1
											CHANNELS 3  Xrotation Yrotation Zrotation
											End Site
											{
												OFFSET	1	0	0
											}
										}
									}
								}
							}
						}
					}
					JOINT right_clavicle
					{
						OFFSET	43.2	22.4	-70.8
						CHANNELS 3  Xrotation Yrotation Zrotation
						JOINT right_shoulder
						{
							OFFSET	93.9	-5.79999	48.7
							CHANNELS 3  Xrotation Yrotation Zrotation
							JOINT right_elbow
							{
								OFFSET	291.4	-30.8	15.2
								CHANNELS 3  Xrotation Yrotation Zrotation
								JOINT right_lowarm_twist
								{
									OFFSET	110.7	-3.89999	13.6
									CHANNELS 3  Xrotation Yrotation Zrotation
									JOINT right_hand
									{
										OFFSET	110.7	-3.89999	13.6
										CHANNELS 3  Xrotation Yrotation Zrotation
										JOINT right_ee
										{
											OFFSET	80.8	-5.10001	12.1
											CHANNELS 3  Xrotation Yrotation Zrotation
											End Site
											{
												OFFSET	1	0	0
											}
										}
									}
								}
							}
						}
					}
				}
			}
		}
	}
	JOINT left_hip
	{
		OFFSET	-82.8	-127.5	0.300001
		CHANNELS 3  Xrotation Yrotation Zrotation
		JOINT left_knee
		{
			OFFSET	-28.2	-396.7	2.2
			CHANNELS 3  Xrotation Yrotation Zrotation
			JOINT left_ankle
			{
				OFFSET	-11.7	-411.3	35.4
				CHANNELS 3  Xrotation Yrotation Zrotation
				JOINT left_toes
				{
					OFFSET	0	-60	-88.6
					CHANNELS 3  Xrotation Yrotation Zrotation
					JOINT left_foot_ee
					{
						OFFSET	-22.5	-16.5	-42.2
						CHANNELS 3  Xrotation Yrotation Zrotation
						End Site
						{
							OFFSET	1	0	0
						}
					}
				}
			}
		}
	}
	JOINT right_hip
	{
		OFFSET	82.8	-127.5	0.300001
		CHANNELS 3  Xrotation Yrotation Zrotation
		JOINT right_knee
		{
			OFFSET	28.2	-396.7	2.2
			CHANNELS 3  Xrotation Yrotation Zrotation
			JOINT right_ankle
			{
				OFFSET	11.7	-411.3	35.4
				CHANNELS 3  Xrotation Yrotation Zrotation
				JOINT right_toes
				{
					OFFSET	0	-60	-88.6
					CHANNELS 3  Xrotation Yrotation Zrotation
					JOINT right_foot_ee
					{
						OFFSET	22.5	-16.5	-42.2
						CHANNELS 3  Xrotation Yrotation Zrotation
						End Site
						{
							OFFSET	1	0	0
						}
					}
				}
			}
		}
	}
}
MOTION
Frames: 15
Frame Time: 0.02
995.911 741.918 -1584.17 -114.713 78.1001 109.842 3.71327 0.474857 3.85659 3.72151 0.228678 3.87895 3.73283 -0.340757 3.87073 3.71203 0.274356 3.87599 -15.394 3.99453 -10.0069 -15.2777 13.5281 -8.11945 -0.0 0.0 -0.0 -4.52559 3.08427 -8.18655 -9.5506 -33.0586 68.9669 0.516727 -14.358 0.0650858 -18.0461 -0.972561 2.083 2.89642 24.4297 27.3521 -0.0 0.0 -0.0 9.06924 -4.23663 -17.5537 -16.6706 7.67159 -72.3896 1.40223 34.7829 -0.439224 -2.23741 0.0841872 -0.273284 1.27409 14.7023 -2.30548 0.0 0.0 0.0 21.5017 2.99396 -0.694764 -4.17821 0.149338 0.623697 15.9614 -8.35965 -2.3051 -40.035 0.0 0.0 -0.0 0.0 -0.0 17.2126 13.7714 -4.74898 -4.94591 -0.171807 -0.739372 32.2764 -22.9667 4.31562 -39.2527 0.0 0.0 0.0 0.0 0.0 
999.571 743.807 -1587.05 -118.023 78.1849 113.438 3.48254 0.584705 3.94215 3.49112 0.332873 3.9713 3.51042 -0.266422 3.97631 3.48855 0.364397 3.96854 -19.321 4.70811 -9.92814 -19.3289 14.2334 -7.34328 -0.0 0.0 -0.0 -4.25889 2.88552 -7.7153 -8.23656 -33.4306 68.5804 0.561332 -15.5397 0.0765925 -18.4068 -0.998543 2.12119 2.70509 24.0296 26.0143 -0.0 0.0 -0.0 8.93528 -4.96216 -17.2501 -17.7625 7.50387 -73.2408 1.34854 33.7423 -0.408993 -1.92324 0.071722 -0.235109 1.23507 14.3119 -2.21498 0.0 0.0 0.0 21.8446 3.58816 -0.857967 -4.30199 0.153066 0.642328 15.8543 -8.04791 -2.28727 -40.044 0.0 0.0 -0.0 0.0 -0.0 17.4948 12.0332 -4.96693 -5.52562 -0.187745 -0.82691 30.0164 -24.4488 4.09603 -38.9369 0.0 0.0 0.0 0.0 0.0 
991.878 742.792 -1589.61 -118.094 78.2729 113.072 3.77044 0.658285 3.95317 3.77904 0.405606 3.98697 3.8028 -0.176228 4.00365 3.78073 0.457773 3.98133 -20.96 4.5309 -9.85338 -20.9842 13.5828 -7.18848 -0.0 0.0 -0.0 -4.19276 3.23031 -7.51846 -6.90914 -33.1258 66.7988 0.670236 -18.367 0.108358 -19.4668 -1.07627 2.23247 2.01382 23.3344 21.4329 -0.0 0.0 -0.0 8.82241 -5.88549 -16.9764 -18.9378 6.04548 -73.1232 1.23604 31.4777 -0.348352 -1.93317 0.0721125 -0.236316 1.1518 12.656 -2.37826 0.0 0.0 0.0 21.1626 3.4919 -0.989198 -5.49378 0.186893 0.822098 15.9638 -10.6233 -2.33329 -39.2376 0.0 0.0 -0.0 0.0 -0.0 17.6097 10.9446 -4.8994 -7.10307 -0.226618 -1.06586 32.9174 -23.9755 4.41007 -38.1117 0.0 0.0 0.0 0.0 0.0 
984.978 741.12 -1590.09 -117.089 77.6794 112.5 4.11846 0.777168 3.87508 4.12665 0.529206 3.91659 4.15778 -0.0189036 3.95208 4.1365 0.605007 3.90561 -21.547 4.56137 -9.86317 -21.5825 13.5471 -7.13106 -0.0 0.0 -0.0 -3.57145 3.78383 -6.22817 -5.57548 -33.4652 64.8629 0.727134 -19.8091 0.126966 -18.9577 -1.03868 2.1792 1.62204 22.9314 18.8856 -0.0 0.0 -0.0 8.79171 -6.54409 -16.8762 -19.6184 5.52574 -73.5083 1.02409 26.8982 -0.244906 -1.7061 0.063229 -0.208684 0.721751 11.0484 -0.173738 0.0 0.0 0.0 20.7877 3.88684 -1.80372 -4.19285 0.149781 0.625899 15.2703 -9.41705 -2.22417 -39.4043 0.0 0.0 -0.0 0.0 -0.0 17.4698 11.7918 -4.97778 -6.64572 -0.216025 -0.996475 32.7558 -22.9744 4.3682 -38.7165 0.0 0.0 0.0 0.0 0.0 
982.049 741.598 -1586.87 -115.885 77.3135 111.512 4.40336 0.8453 3.84544 4.41139 0.599082 3.89134 4.44646 0.0738324 3.93643 4.42551 0.694118 3.87554 -22.7442 4.21446 -8.67763 -22.8013 12.1262 -6.08803 -0.0 0.0 -0.0 -3.11612 5.76775 -5.00521 -4.70445 -31.4833 64.0375 0.949983 -25.201 0.21236 -19.0996 -1.04912 2.19409 0.825517 22.5289 13.9186 -0.0 0.0 -0.0 8.68187 -7.54474 -16.6021 -20.8178 5.87566 -73.3138 0.858907 23.0484 -0.175128 -1.77617 0.0659588 -0.217215 0.388193 11.1537 2.12171 0.0 0.0 0.0 20.7007 4.09869 -1.85963 -3.39617 0.124857 0.506175 15.6749 -11.5075 -2.30596 -38.7863 0.0 0.0 -0.0 0.0 -0.0 17.6795 10.3911 -5.22027 -6.99472 -0.224158 -1.04941 32.9168 -21.1785 4.34608 -38.8508 0.0 0.0 0.0 0.0 0.0 
978.925 738.218 -1587.01 -112.289 77.7005 108.038 4.58279 0.903406 3.78173 4.5905 0.661116 3.83145 4.62889 0.155849 3.88486 4.60866 0.766985 3.81169 -23.3369 4.70169 -9.57397 -23.4195 13.3782 -6.6438 -0.0 0.0 -0.0 -3.08249 5.84743 -4.92861 -3.3681 -33.5419 63.4344 0.926079 -24.643 0.202287 -19.1007 -1.04919 2.1942 0.831587 22.3954 13.9114 -0.0 0.0 -0.0 8.66699 -7.42382 -16.5821 -21.8863 4.89338 -73.429 0.819904 22.1047 -0.160154 -1.95041 0.0727915 -0.238412 0.436112 9.4033 1.04973 0.0 0.0 0.0 20.7685 3.9913 -1.80245 -3.48131 0.1276 0.518954 14.9181 -9.95506 -2.1826 -40.2607 0.0 0.0 -0.0 0.0 -0.0 17.2926 10.5006 -5.63117 -7.23215 -0.229507 -1.08546 34.4102 -22.9193 4.54441 -39.0287 0.0 0.0 0.0 0.0 0.0 
976.716 737.354 -1585.24 -112.095 77.4901 108.21 4.68094 0.795258 3.69027 4.68834 0.558993 3.73332 4.71899 0.0731138 3.77417 4.69974 0.667839 3.71541 -23.519 4.78934 -8.81189 -23.6343 13.1752 -5.87446 -0.0 0.0 -0.0 -3.47231 6.57424 -5.50597 -2.25173 -34.7644 63.1662 1.29564 -32.6918 0.380015 -18.3254 -0.992659 2.11259 0.812119 19.1667 12.7087 -0.0 0.0 -0.0 8.89079 -7.79142 -16.9783 -23.3278 2.59328 -72.3866 0.682658 18.684 -0.112305 -1.60924 0.0594731 -0.196888 -0.049132 8.67476 4.01845 0.0 0.0 0.0 20.6149 3.92567 -1.94425 -3.13011 0.116162 0.466268 14.8139 -11.3171 -2.18531 -39.8009 0.0 0.0 -0.0 0.0 -0.0 17.0787 11.8363 -5.41968 -5.28297 -0.181182 -0.790249 35.0428 -21.1801 4.56999 -39.6212 0.0 0.0 0.0 0.0 0.0 
972.997 736.055 -1584.06 -108.59 77.173 104.385 4.81189 0.791334 3.71406 4.81939 0.553566 3.75681 4.84954 0.0733552 3.79661 4.83006 0.671614 3.73754 -23.5315 4.74749 -8.85396 -23.6418 13.1114 -5.93339 -0.0 0.0 -0.0 -3.08726 7.1355 -4.69865 0.126104 -34.6002 63.3434 1.26737 -32.1199 0.364862 -18.9072 -1.03498 2.1739 0.382243 21.4421 10.8924 -0.0 0.0 -0.0 8.59573 -7.79218 -16.4236 -24.0405 3.79892 -72.9296 0.62237 17.1349 -0.0937637 -1.94269 0.0724876 -0.237474 0.109746 8.1255 2.7094 0.0 0.0 0.0 20.5026 3.88732 -2.35214 -2.94084 0.109864 0.437903 14.9316 -10.7582 -2.19433 -39.9844 0.0 0.0 -0.0 0.0 -0.0 17.18 10.5142 -5.43543 -5.57658 -0.189103 -0.834612 36.5303 -21.1405 4.7205 -39.3348 0.0 0.0 0.0 0.0 0.0 
967.702 738.238 -1584.25 -107.608 76.8306 103.481 4.9103 0.729421 3.68327 4.91771 0.493733 3.72215 4.94352 0.0244326 3.75463 4.92438 0.616687 3.70379 -23.555 4.75046 -8.63725 -23.6715 13.0167 -5.72782 -0.0 0.0 -0.0 -3.10272 7.4388 -4.66997 0.774767 -34.89 63.3197 1.39665 -34.6758 0.436042 -18.8387 -1.02996 2.1667 0.242713 21.1084 9.93816 -0.0 0.0 -0.0 8.52417 -7.73847 -16.293 -24.0143 3.55883 -72.5794 0.569414 15.7524 -0.0787723 -1.89713 0.0706955 -0.231933 0.00426475 7.6582 3.22315 0.0 0.0 0.0 20.8293 3.91664 -2.24354 -2.73196 0.102805 0.406624 14.8403 -10.9909 -2.18474 -39.8579 0.0 0.0 -0.0 0.0 -0.0 17.245 10.4083 -5.58519 -5.1009 -0.176155 -0.762761 37.1637 -20.6346 4.77197 -39.412 0.0 0.0 0.0 0.0 0.0 
961.242 735.173 -1583.24 -113.553 76.487 109.714 4.95288 0.58434 3.56334 4.95987 0.356561 3.59325 4.97627 -0.0937441 3.60966 4.95841 0.477138 3.57925 -23.0496 4.55174 -8.50699 -23.1446 12.6519 -5.74357 -0.0 0.0 -0.0 -3.06039 7.2935 -4.62065 1.8196 -35.3003 63.6323 1.5473 -37.467 0.524767 -18.3133 -0.991782 2.1113 0.240126 19.2114 9.22731 -0.0 0.0 -0.0 8.46095 -9.26004 -16.0717 -25.6518 2.9814 -71.5695 0.438125 12.2454 -0.046998 -1.88075 0.0700522 -0.229941 -0.0503658 7.51915 3.53324 0.0 0.0 0.0 20.0269 4.09896 -2.31425 -2.4549 0.0932651 0.365173 17.7928 -11.3464 -2.58906 -38.8633 0.0 0.0 -0.0 0.0 -0.0 17.0122 10.4866 -5.51066 -5.88139 -0.197087 -0.880709 37.6267 -20.1887 4.80739 -40.1802 0.0 0.0 0.0 0.0 0.0 
960.035 736.276 -1580.68 -107.799 76.8941 103.731 4.98511 0.552353 3.49043 4.99182 0.329269 3.51845 5.00626 -0.109699 3.53211 4.98914 0.449158 3.50518 -23.4405 4.82557 -8.17726 -23.5741 12.9727 -5.27093 -0.0 0.0 -0.0 -3.07241 7.2843 -4.64407 2.45905 -35.2379 63.7422 1.56471 -37.7769 0.535397 -18.6517 -1.01632 2.14703 0.0810789 20.3468 8.68972 -0.0 0.0 -0.0 8.45955 -8.48799 -16.1228 -27.3445 2.55703 -71.4515 0.422735 11.8276 -0.0437887 -1.90759 0.0711066 -0.233206 -0.214643 7.11919 4.47394 0.0 0.0 0.0 19.3666 4.17193 -1.92301 -2.17367 0.0833765 0.323146 16.1834 -11.4469 -2.37433 -39.4771 0.0 0.0 -0.0 0.0 -0.0 16.643 10.455 -5.49344 -5.77669 -0.194372 -0.864869 38.308 -19.8978 4.86682 -39.5285 0.0 0.0 0.0 0.0 0.0 
953.91 738.528 -1578.37 -108.035 77.0323 103.91 4.98128 0.483293 3.3984 4.98766 0.266195 3.42223 4.99809 -0.160941 3.42878 4.98189 0.382269 3.41123 -23.6159 4.05806 -6.60834 -23.7165 10.7692 -4.17371 -0.0 0.0 -0.0 -3.5933 7.27117 -5.58975 2.18648 -36.4603 64.1436 1.78167 -41.4274 0.673773 -17.3476 -0.922942 2.00859 0.43741 17.5937 9.83951 -0.0 0.0 -0.0 8.87189 -8.94342 -16.8554 -28.7434 2.01858 -70.1365 0.326511 9.18787 -0.0262357 -1.81462 0.067461 -0.221895 -0.271326 5.92132 4.34468 0.0 0.0 0.0 18.785 4.21207 -2.00252 -1.93362 0.0747726 0.28731 18.5807 -15.1035 -2.75982 -38.7624 0.0 0.0 -0.0 0.0 -0.0 16.5629 9.32817 -4.96506 -6.5958 -0.214836 -0.988906 35.3461 -20.1049 4.57814 -40.1522 0.0 0.0 0.0 0.0 0.0 
949.469 740.698 -1574.8 -107.747 76.9385 103.823 5.01237 0.431433 3.30139 5.01841 0.220601 3.32212 5.02598 -0.192189 3.32388 5.01072 0.334874 3.31256 -23.8942 5.02268 -7.37315 -24.0697 12.9319 -4.38586 -0.0 0.0 -0.0 -3.05013 6.92648 -4.67016 3.14491 -36.2162 64.7823 1.75775 -41.0436 0.658004 -18.3747 -0.996216 2.11779 0.0403301 19.4346 8.10128 -0.0 0.0 -0.0 8.46434 -8.9239 -16.1017 -29.386 2.06495 -70.8211 0.314999 8.86917 -0.0244292 -1.91173 0.0712693 -0.233709 -0.373923 6.36861 5.23105 0.0 0.0 0.0 18.4979 3.57521 -1.69707 -1.68227 0.0656028 0.249826 17.8581 -12.2329 -2.61165 -38.9006 0.0 0.0 -0.0 0.0 -0.0 16.2357 10.0805 -4.71347 -6.30772 -0.207841 -0.945251 37.7563 -19.8137 4.81178 -39.5969 0.0 0.0 0.0 0.0 0.0 
943.717 737.732 -1574.57 -107.898 76.9028 103.962 5.09427 0.450146 3.24993 5.10011 0.242546 3.27196 5.10878 -0.159422 3.27706 5.09397 0.359847 3.26115 -23.6399 5.1713 -6.92041 -23.8343 13.0506 -3.91166 -0.0 0.0 -0.0 -3.44804 6.84857 -5.40845 3.39852 -36.6011 64.8526 1.85462 -42.5702 0.722585 -17.5866 -0.939815 2.03411 0.281411 17.3811 8.79882 -0.0 0.0 -0.0 8.5781 -9.18578 -16.2929 -30.4567 1.95994 -70.3803 0.281562 7.94042 -0.0195416 -2.02345 0.0756755 -0.247293 -0.262774 6.19716 4.40498 0.0 0.0 0.0 17.5347 3.86426 -1.58644 -1.30213 0.0514211 0.193209 19.9492 -14.0237 -2.9204 -38.0255 0.0 0.0 -0.0 0.0 -0.0 16.0654 9.80263 -4.90057 -6.29594 -0.20755 -0.943465 37.8646 -19.0971 4.80712 -40.1992 0.0 0.0 0.0 0.0 0.0 
941.264 737.127 -1576.23 -107.51 76.5032 103.502 5.217 0.472819 3.17111 5.22255 0.27018 3.19474 5.23249 -0.115573 3.20405 5.21838 0.391637 3.18215 -23.979 5.21122 -6.60549 -24.1868 12.947 -3.5688 -0.0 0.0 -0.0 -3.5084 6.85181 -5.51782 3.4148 -36.9987 65.0406 1.98125 -44.4587 0.809783 -17.2768 -0.917967 2.00102 0.317641 16.9277 8.85283 -0.0 0.0 -0.0 8.39339 -9.14005 -15.9559 -30.7203 1.86918 -70.1685 0.255225 7.20589 -0.0160706 -1.99435 0.0745249 -0.243755 -0.257401 5.91497 4.24778 0.0 0.0 0.0 17.6714 3.90392 -1.45403 -0.452184 0.018355 0.0669649 20.8064 -14.662 -3.04539 -37.7392 0.0 0.0 -0.0 0.0 -0.0 16.2988 9.4378 -5.04638 -5.86576 -0.196683 -0.878343 37.7069 -18.8346 4.78659 -40.271 0.0 0.0 0.0 0.0 0.0 
